<svg preserveAspectRatio="none" width="100%" height="100%" overflow="visible" style="display: block;" viewBox="0 0 19.5938 24" fill="none" xmlns="http://www.w3.org/2000/svg">
<g id="Frame" clip-path="url(#clip0_309_111)">
<path id="Vector" d="M18.9437 8.1816C18.8045 8.2896 16.3469 9.6744 16.3469 12.7536C16.3469 16.3152 19.4741 17.5752 19.5677 17.6064C19.5533 17.6832 19.0709 19.332 17.9189 21.012C16.8917 22.4904 15.8189 23.9664 14.1869 23.9664C12.5549 23.9664 12.1349 23.0184 10.2509 23.0184C8.4149 23.0184 7.7621 23.9976 6.2693 23.9976C4.7765 23.9976 3.7349 22.6296 2.5373 20.9496C1.1501 18.9768 0.0292969 15.912 0.0292969 13.0032C0.0292969 8.3376 3.0629 5.8632 6.0485 5.8632C7.6349 5.8632 8.9573 6.9048 9.9533 6.9048C10.9013 6.9048 12.3797 5.8008 14.1845 5.8008C14.8685 5.8008 17.3261 5.8632 18.9437 8.1816ZM13.3277 3.8256C14.0741 2.94 14.6021 1.7112 14.6021 0.4824C14.6021 0.312 14.5877 0.1392 14.5565 0C13.3421 0.0456 11.8973 0.8088 11.0261 1.8192C10.3421 2.5968 9.7037 3.8256 9.7037 5.0712C9.7037 5.2584 9.7349 5.4456 9.7493 5.5056C9.8261 5.52 9.9509 5.5368 10.0757 5.5368C11.1653 5.5368 12.5357 4.8072 13.3277 3.8256Z" fill="var(--fill-0, #0A0A0A)"/>
</g>
<defs>
<clipPath id="clip0_309_111">
<rect width="19.5938" height="24" fill="white"/>
</clipPath>
</defs>
</svg>
