<svg preserveAspectRatio="none" width="100%" height="100%" overflow="visible" style="display: block;" viewBox="0 0 12 9.32812" fill="none" xmlns="http://www.w3.org/2000/svg">
<g id="Frame" clip-path="url(#clip0_309_53)">
<path id="Vector" d="M10.1651 0.777984C9.37815 0.409768 8.5456 0.148134 7.68947 0C7.58282 0.192797 7.45823 0.452109 7.37231 0.658406C6.44925 0.519609 5.53467 0.519609 4.62857 0.658406C4.5427 0.452156 4.41529 0.192797 4.30767 0C3.4507 0.148203 2.61743 0.410503 1.83009 0.779906C0.263341 3.14752 -0.161394 5.45625 0.0509499 7.73231C1.09012 8.50833 2.09718 8.97975 3.08728 9.28823C3.33334 8.94985 3.55086 8.5916 3.73757 8.21719C3.38209 8.08185 3.03938 7.91506 2.71354 7.71881C2.79929 7.65526 2.88302 7.58902 2.96461 7.5202C4.93907 8.44373 7.08445 8.44373 9.03539 7.5202C9.11733 7.58857 9.20103 7.65479 9.2864 7.71881C8.96004 7.91558 8.6167 8.0827 8.2605 8.21817C8.44828 8.59411 8.6654 8.9527 8.91079 9.28917C9.90182 8.98073 10.9098 8.50931 11.949 7.73231C12.1982 5.09381 11.5234 2.80627 10.1651 0.777984ZM4.00659 6.33258C3.41386 6.33258 2.92776 5.77922 2.92776 5.10539C2.92776 4.43156 3.4035 3.87727 4.00659 3.87727C4.60973 3.87727 5.09578 4.43058 5.08542 5.10539C5.08636 5.77922 4.60973 6.33258 4.00659 6.33258ZM7.99336 6.33258C7.40062 6.33258 6.91457 5.77922 6.91457 5.10539C6.91457 4.43156 7.39026 3.87727 7.99336 3.87727C8.5965 3.87727 9.08254 4.43058 9.07218 5.10539C9.07218 5.77922 8.5965 6.33258 7.99336 6.33258Z" fill="var(--fill-0, #5865F2)"/>
</g>
<defs>
<clipPath id="clip0_309_53">
<rect width="12" height="9.32812" fill="white"/>
</clipPath>
</defs>
</svg>
