<svg preserveAspectRatio="none" width="100%" height="100%" overflow="visible" style="display: block;" viewBox="0 0 23.6308 24" fill="none" xmlns="http://www.w3.org/2000/svg">
<g id="Frame" clip-path="url(#clip0_309_114)">
<path id="Vector" d="M22.0776 9.80336C22.3455 8.99672 22.4381 8.1422 22.3494 7.29689C22.2606 6.45159 21.9925 5.63495 21.5629 4.90154C20.2562 2.62699 17.6299 1.45699 15.0649 2.00678C14.3547 1.2168 13.4492 0.62759 12.4392 0.298332C11.4292 -0.0309249 10.3504 -0.0886417 9.31106 0.130978C8.27173 0.350599 7.30848 0.839824 6.51805 1.54952C5.72762 2.25922 5.13784 3.1644 4.80795 4.17416C3.97512 4.34494 3.18834 4.69151 2.50018 5.19071C1.81202 5.68992 1.23835 6.33025 0.817487 7.06893C-0.503436 9.33988 -0.203528 12.2044 1.55899 14.1526C1.29014 14.9589 1.19656 15.8132 1.28452 16.6586C1.37247 17.5039 1.63992 18.3207 2.06899 19.0543C3.37736 21.3297 6.00536 22.4996 8.5717 21.9491C9.13595 22.5845 9.82924 23.0922 10.6053 23.4383C11.3814 23.7844 12.2223 23.961 13.0721 23.9563C15.7011 23.9586 18.0303 22.2614 18.8334 19.758C19.6661 19.5869 20.4527 19.2402 21.1408 18.7411C21.8289 18.2419 22.4026 17.6017 22.8237 16.8632C24.1287 14.5963 23.8276 11.7474 22.0776 9.80336ZM13.0721 22.3884C12.0227 22.3901 11.0062 22.0223 10.2008 21.3495L10.3425 21.2692L15.1121 18.5161C15.2308 18.4465 15.3293 18.3472 15.3981 18.228C15.4668 18.1087 15.5033 17.9737 15.5041 17.8361V11.1115L17.5206 12.2779C17.5407 12.2881 17.5547 12.3074 17.5583 12.3298V17.9022C17.5531 20.3777 15.5476 22.3832 13.0721 22.3884ZM3.42906 18.2706C2.90278 17.3618 2.71383 16.2966 2.89543 15.2623L3.03703 15.3474L7.81136 18.1005C7.92949 18.1699 8.06398 18.2064 8.20095 18.2064C8.33792 18.2064 8.4724 18.1699 8.59053 18.1005L14.4226 14.7382V17.0663C14.4221 17.0784 14.4188 17.0902 14.4131 17.1008C14.4074 17.1114 14.3993 17.1206 14.3896 17.1277L9.55866 19.9139C7.41186 21.1507 4.66912 20.4152 3.42906 18.2706ZM2.17284 7.88124C2.70277 6.96667 3.53921 6.2691 4.53407 5.91204V11.5788C4.53227 11.7157 4.56726 11.8506 4.63537 11.9694C4.70348 12.0882 4.80223 12.1865 4.9213 12.2541L10.7251 15.6023L8.7086 16.7687C8.69769 16.7745 8.68554 16.7775 8.6732 16.7775C8.66085 16.7775 8.6487 16.7745 8.6378 16.7687L3.81629 13.9874C1.67373 12.7455 0.938964 10.0049 2.17284 7.8577V7.88124ZM18.7389 11.73L12.9162 8.34878L14.928 7.18708C14.9389 7.18129 14.9511 7.17826 14.9635 7.17826C14.9758 7.17826 14.988 7.18129 14.9989 7.18708L19.8204 9.9733C20.5576 10.3987 21.1586 11.025 21.5532 11.7791C21.9478 12.5332 22.1198 13.384 22.0489 14.2322C21.9781 15.0804 21.6675 15.8909 21.1533 16.5692C20.6391 17.2474 19.9426 17.7654 19.1451 18.0627V12.3958C19.1409 12.2592 19.1013 12.1259 19.0301 12.0092C18.9589 11.8925 18.8585 11.7963 18.7389 11.73ZM20.7459 8.71247L20.6042 8.62736L15.8394 5.85065C15.7205 5.78092 15.5852 5.74415 15.4474 5.74415C15.3096 5.74415 15.1743 5.78092 15.0555 5.85065L9.22801 9.21305V6.88496C9.22677 6.87312 9.22875 6.86117 9.23374 6.85037C9.23872 6.83957 9.24654 6.83031 9.25635 6.82357L14.0779 4.04207C14.8168 3.61637 15.6617 3.40987 16.5137 3.44673C17.3657 3.48358 18.1896 3.76227 18.8891 4.25019C19.5885 4.7381 20.1345 5.41508 20.4634 6.20195C20.7922 6.98882 20.8901 7.85304 20.7458 8.69354V8.71247H20.7459ZM8.1278 12.8397L6.11133 11.678C6.10126 11.6719 6.09264 11.6637 6.0861 11.6539C6.07956 11.6441 6.07525 11.633 6.07349 11.6214V6.06324C6.07461 5.21058 6.31843 4.37586 6.77647 3.65667C7.2345 2.93748 7.8878 2.36355 8.66 2.00197C9.4322 1.64039 10.2914 1.50611 11.1371 1.61483C11.9828 1.72355 12.78 2.07078 13.4357 2.61591L13.294 2.69622L8.52444 5.4493C8.40575 5.51893 8.3072 5.61823 8.23849 5.73745C8.16977 5.85668 8.13325 5.99172 8.1325 6.12933L8.1278 12.8398V12.8397ZM9.2233 10.4785L11.8207 8.98154L14.4226 10.4786V13.4725L11.8301 14.9695L9.2281 13.4725L9.2233 10.4785Z" fill="var(--fill-0, #0A0A0A)"/>
</g>
<defs>
<clipPath id="clip0_309_114">
<rect width="23.6308" height="24" fill="white"/>
</clipPath>
</defs>
</svg>
