<svg preserveAspectRatio="none" width="100%" height="100%" overflow="visible" style="display: block;" viewBox="0 0 12 8.4375" fill="none" xmlns="http://www.w3.org/2000/svg">
<g id="Frame" clip-path="url(#clip0_309_56)">
<path id="Vector" d="M11.735 1.31602C11.6661 1.06165 11.5319 0.829755 11.3456 0.643419C11.1592 0.457084 10.9273 0.32281 10.673 0.253969C9.74176 0 5.99392 0 5.99392 0C5.99392 0 2.24588 0.00768748 1.31467 0.261656C1.0603 0.330502 0.828404 0.464782 0.642076 0.651127C0.455748 0.837471 0.321488 1.06938 0.252665 1.32375C-0.0290066 2.97834 -0.138272 5.49956 0.2604 7.08797C0.32923 7.34233 0.463493 7.57423 0.649821 7.76056C0.836148 7.9469 1.06804 8.08117 1.3224 8.15002C2.25362 8.40398 6.00156 8.40398 6.00156 8.40398C6.00156 8.40398 9.74945 8.40398 10.6806 8.15002C10.935 8.08118 11.1669 7.94691 11.3532 7.76057C11.5396 7.57424 11.6738 7.34234 11.7427 7.08797C12.0398 5.43103 12.1313 2.91136 11.735 1.31602Z" fill="var(--fill-0, #FF0000)"/>
<path id="Vector_2" d="M4.80029 6.00293L7.90942 4.20209L4.80029 2.40125V6.00293Z" fill="var(--fill-0, #0A0A0A)"/>
</g>
<defs>
<clipPath id="clip0_309_56">
<rect width="12" height="8.4375" fill="white"/>
</clipPath>
</defs>
</svg>
